<?xml version="1.0" encoding="UTF-8" standalone="no"?><svg xmlns="http://www.w3.org/2000/svg" xmlns:xlink="http://www.w3.org/1999/xlink" contentStyleType="text/css" height="979px" preserveAspectRatio="none" style="width:1344px;height:979px;background:#FFFFFF;" version="1.1" viewBox="0 0 1344 979" width="1344px" zoomAndPan="magnify"><defs/><g><rect fill="#F1F1F1" height="36.2969" rx="12.5" ry="12.5" style="stroke:#181818;stroke-width:1.5;" width="174" x="10" y="470.375"/><text fill="#000000" font-family="sans-serif" font-size="14" lengthAdjust="spacing" textLength="154" x="20" y="493.3701">校芳草社青年志愿者协会</text><rect fill="#F1F1F1" height="36.2969" rx="12.5" ry="12.5" style="stroke:#181818;stroke-width:1.5;" width="76" x="234" y="48.1484"/><text fill="#000000" font-family="sans-serif" font-size="14" lengthAdjust="spacing" textLength="56" x="244" y="71.1436">日常系统</text><rect fill="#F1F1F1" height="36.2969" rx="12.5" ry="12.5" style="stroke:#181818;stroke-width:1.5;" width="90" x="360" y="20"/><text fill="#000000" font-family="sans-serif" font-size="14" lengthAdjust="spacing" textLength="70" x="370" y="42.9951">综合事务部</text><path d="M310,66.2969 L320,66.2969 C335,66.2969 335,38.1484 350,38.1484 L360,38.1484 " fill="none" style="stroke:#181818;stroke-width:1.0;"/><rect fill="#F1F1F1" height="36.2969" rx="12.5" ry="12.5" style="stroke:#181818;stroke-width:1.5;" width="62" x="360" y="76.2969"/><text fill="#000000" font-family="sans-serif" font-size="14" lengthAdjust="spacing" textLength="42" x="370" y="99.292">宣传部</text><path d="M310,66.2969 L320,66.2969 C335,66.2969 335,94.4453 350,94.4453 L360,94.4453 " fill="none" style="stroke:#181818;stroke-width:1.0;"/><path d="M184,488.5234 L194,488.5234 C209,488.5234 209,66.2969 224,66.2969 L234,66.2969 " fill="none" style="stroke:#181818;stroke-width:1.0;"/><rect fill="#F1F1F1" height="36.2969" rx="12.5" ry="12.5" style="stroke:#181818;stroke-width:1.5;" width="90" x="234" y="188.8906"/><text fill="#000000" font-family="sans-serif" font-size="14" lengthAdjust="spacing" textLength="70" x="244" y="211.8857">直属服务团</text><rect fill="#F1F1F1" height="36.2969" rx="12.5" ry="12.5" style="stroke:#181818;stroke-width:1.5;" width="90" x="374" y="132.5938"/><text fill="#000000" font-family="sans-serif" font-size="14" lengthAdjust="spacing" textLength="70" x="384" y="155.5889">校园服务团</text><path d="M324,207.0391 L334,207.0391 C349,207.0391 349,150.7422 364,150.7422 L374,150.7422 " fill="none" style="stroke:#181818;stroke-width:1.0;"/><rect fill="#F1F1F1" height="36.2969" rx="12.5" ry="12.5" style="stroke:#181818;stroke-width:1.5;" width="104" x="374" y="188.8906"/><text fill="#000000" font-family="sans-serif" font-size="14" lengthAdjust="spacing" textLength="84" x="384" y="211.8857">启明星服务团</text><path d="M324,207.0391 L334,207.0391 C349,207.0391 349,207.0391 364,207.0391 L374,207.0391 " fill="none" style="stroke:#181818;stroke-width:1.0;"/><rect fill="#F1F1F1" height="36.2969" rx="12.5" ry="12.5" style="stroke:#181818;stroke-width:1.5;" width="90" x="374" y="245.1875"/><text fill="#000000" font-family="sans-serif" font-size="14" lengthAdjust="spacing" textLength="70" x="384" y="268.1826">特教服务团</text><path d="M324,207.0391 L334,207.0391 C349,207.0391 349,263.3359 364,263.3359 L374,263.3359 " fill="none" style="stroke:#181818;stroke-width:1.0;"/><path d="M184,488.5234 L194,488.5234 C209,488.5234 209,207.0391 224,207.0391 L234,207.0391 " fill="none" style="stroke:#181818;stroke-width:1.0;"/><rect fill="#F1F1F1" height="36.2969" rx="12.5" ry="12.5" style="stroke:#181818;stroke-width:1.5;" width="76" x="234" y="470.375"/><text fill="#000000" font-family="sans-serif" font-size="14" lengthAdjust="spacing" textLength="56" x="244" y="493.3701">专项队伍</text><rect fill="#F1F1F1" height="36.2969" rx="12.5" ry="12.5" style="stroke:#181818;stroke-width:1.5;" width="146" x="360" y="301.4844"/><text fill="#000000" font-family="sans-serif" font-size="14" lengthAdjust="spacing" textLength="126" x="370" y="324.4795">图书馆志愿服务分队</text><path d="M310,488.5234 L320,488.5234 C335,488.5234 335,319.6328 350,319.6328 L360,319.6328 " fill="none" style="stroke:#181818;stroke-width:1.0;"/><rect fill="#F1F1F1" height="36.2969" rx="12.5" ry="12.5" style="stroke:#181818;stroke-width:1.5;" width="146" x="360" y="357.7813"/><text fill="#000000" font-family="sans-serif" font-size="14" lengthAdjust="spacing" textLength="126" x="370" y="380.7764">校医院志愿服务分队</text><path d="M310,488.5234 L320,488.5234 C335,488.5234 335,375.9297 350,375.9297 L360,375.9297 " fill="none" style="stroke:#181818;stroke-width:1.0;"/><rect fill="#F1F1F1" height="36.2969" rx="12.5" ry="12.5" style="stroke:#181818;stroke-width:1.5;" width="160" x="360" y="414.0781"/><text fill="#000000" font-family="sans-serif" font-size="14" lengthAdjust="spacing" textLength="140" x="370" y="437.0732">招生工作志愿服务分队</text><path d="M310,488.5234 L320,488.5234 C335,488.5234 335,432.2266 350,432.2266 L360,432.2266 " fill="none" style="stroke:#181818;stroke-width:1.0;"/><rect fill="#F1F1F1" height="36.2969" rx="12.5" ry="12.5" style="stroke:#181818;stroke-width:1.5;" width="160" x="360" y="470.375"/><text fill="#000000" font-family="sans-serif" font-size="14" lengthAdjust="spacing" textLength="140" x="370" y="493.3701">校友工作志愿服务分队</text><path d="M310,488.5234 L320,488.5234 C335,488.5234 335,488.5234 350,488.5234 L360,488.5234 " fill="none" style="stroke:#181818;stroke-width:1.0;"/><rect fill="#F1F1F1" height="36.2969" rx="12.5" ry="12.5" style="stroke:#181818;stroke-width:1.5;" width="160" x="360" y="526.6719"/><text fill="#000000" font-family="sans-serif" font-size="14" lengthAdjust="spacing" textLength="140" x="370" y="549.667">科大国际志愿服务分队</text><path d="M310,488.5234 L320,488.5234 C335,488.5234 335,544.8203 350,544.8203 L360,544.8203 " fill="none" style="stroke:#181818;stroke-width:1.0;"/><rect fill="#F1F1F1" height="36.2969" rx="12.5" ry="12.5" style="stroke:#181818;stroke-width:1.5;" width="132" x="360" y="582.9688"/><text fill="#000000" font-family="sans-serif" font-size="14" lengthAdjust="spacing" textLength="112" x="370" y="605.9639">书院志愿服务分队</text><path d="M310,488.5234 L320,488.5234 C335,488.5234 335,601.1172 350,601.1172 L360,601.1172 " fill="none" style="stroke:#181818;stroke-width:1.0;"/><rect fill="#F1F1F1" height="36.2969" rx="12.5" ry="12.5" style="stroke:#181818;stroke-width:1.5;" width="146" x="360" y="639.2656"/><text fill="#000000" font-family="sans-serif" font-size="14" lengthAdjust="spacing" textLength="126" x="370" y="662.2607">科小艺志愿服务分队</text><path d="M310,488.5234 L320,488.5234 C335,488.5234 335,657.4141 350,657.4141 L360,657.4141 " fill="none" style="stroke:#181818;stroke-width:1.0;"/><path d="M184,488.5234 L194,488.5234 C209,488.5234 209,488.5234 224,488.5234 L234,488.5234 " fill="none" style="stroke:#181818;stroke-width:1.0;"/><rect fill="#F1F1F1" height="36.2969" rx="12.5" ry="12.5" style="stroke:#181818;stroke-width:1.5;" width="76" x="234" y="695.5625"/><text fill="#000000" font-family="sans-serif" font-size="14" lengthAdjust="spacing" textLength="56" x="244" y="718.5576">院系青协</text><rect fill="#F1F1F1" height="36.2969" rx="12.5" ry="12.5" style="stroke:#181818;stroke-width:1.5;" width="972" x="360" y="695.5625"/><text fill="#000000" font-family="sans-serif" font-size="14" lengthAdjust="spacing" textLength="952" x="370" y="718.5576">管院中队、少院青协（下略）、数院、物院、化院、工院、信院、计科、地空、生医部、人文、核院、火灾、公共事务、苏高院、高新园区、微尺度、马院</text><path d="M310,713.7109 L320,713.7109 C335,713.7109 335,713.7109 350,713.7109 L360,713.7109 " fill="none" style="stroke:#181818;stroke-width:1.0;"/><path d="M184,488.5234 L194,488.5234 C209,488.5234 209,713.7109 224,713.7109 L234,713.7109 " fill="none" style="stroke:#181818;stroke-width:1.0;"/><rect fill="#F1F1F1" height="36.2969" rx="12.5" ry="12.5" style="stroke:#181818;stroke-width:1.5;" width="76" x="234" y="836.3047"/><text fill="#000000" font-family="sans-serif" font-size="14" lengthAdjust="spacing" textLength="56" x="244" y="859.2998">团体会员</text><rect fill="#F1F1F1" height="36.2969" rx="12.5" ry="12.5" style="stroke:#181818;stroke-width:1.5;" width="104" x="360" y="751.8594"/><text fill="#000000" font-family="sans-serif" font-size="14" lengthAdjust="spacing" textLength="84" x="370" y="774.8545">研究生支教团</text><path d="M310,854.4531 L320,854.4531 C335,854.4531 335,770.0078 350,770.0078 L360,770.0078 " fill="none" style="stroke:#181818;stroke-width:1.0;"/><rect fill="#F1F1F1" height="36.2969" rx="12.5" ry="12.5" style="stroke:#181818;stroke-width:1.5;" width="104" x="360" y="808.1563"/><text fill="#000000" font-family="sans-serif" font-size="14" lengthAdjust="spacing" textLength="84" x="370" y="831.1514">唐仲英爱心社</text><path d="M310,854.4531 L320,854.4531 C335,854.4531 335,826.3047 350,826.3047 L360,826.3047 " fill="none" style="stroke:#181818;stroke-width:1.0;"/><rect fill="#F1F1F1" height="36.2969" rx="12.5" ry="12.5" style="stroke:#181818;stroke-width:1.5;" width="90" x="360" y="864.4531"/><text fill="#000000" font-family="sans-serif" font-size="14" lengthAdjust="spacing" textLength="70" x="370" y="887.4482">校友爱心社</text><path d="M310,854.4531 L320,854.4531 C335,854.4531 335,882.6016 350,882.6016 L360,882.6016 " fill="none" style="stroke:#181818;stroke-width:1.0;"/><rect fill="#F1F1F1" height="36.2969" rx="12.5" ry="12.5" style="stroke:#181818;stroke-width:1.5;" width="62" x="360" y="920.75"/><text fill="#000000" font-family="sans-serif" font-size="14" lengthAdjust="spacing" textLength="42" x="370" y="943.7451">自强社</text><path d="M310,854.4531 L320,854.4531 C335,854.4531 335,938.8984 350,938.8984 L360,938.8984 " fill="none" style="stroke:#181818;stroke-width:1.0;"/><path d="M184,488.5234 L194,488.5234 C209,488.5234 209,854.4531 224,854.4531 L234,854.4531 " fill="none" style="stroke:#181818;stroke-width:1.0;"/><!--SRC=[VPBTJXfH4CVlzodE9P9eAccRnYlJrhOnafYYtg-mDPl2MRCiDhtJK1H42bHGBBHyL52g8bHJOLdXORfdp-wLhz0vB3MILEzcvl-RZtDcfeCABoi14Vi2_2hdH4QfR6vVc8aOFUnPtxwGpYNfxnkV-kPwX2IIklQLSmAqNoNjDhteqcuHV2UYNOsaeheQ9zjbAtmyY9763rqhsHwY-KlI-cuK4W2GV6K0G2kIFnkDaTIvaVjiv8gZOHhh6Dc3kp6ajtUjSiVA5NKjOQVcUtgdPjKsxO67S7GJaDjsErthe7AV7i_JJ95SLVNhmWCbal474NgK9eT797zj7KJkGTYKzqx1yfj9CwR-LqUG2D_E5fD8sdoZ336zVGR0d_KDqao3Q-itMbHlnscsUgF5G3AoJP30eB6wRP2TlQ5nLRKDlL-s3RDHXacOL6ZIkigou6_W-yB735DLOs-BrIorXpKtJkX6Z_6HKn9fsPV0wiIJradEPi0mzfgmShB32f9UWpHLejQOL3y5XXjiiQ9VxyATaNJEVc0fG-k_eRkHEOSRk3sKJ4hl_ZBZBHfjaNuOhlNEXaPZvjPFegdCcnRWp8UdpitxUQmikkVGcY07HGcZoGdN8vThOlB9ig3mBiSYVe-b3nXvfS2gw1UG8WQ4CSxnUduE1QMGx1MGJmmgihWSKY1xZ9lbrtZqDeGPDuMOvrXmZo7FpByWci5heYpXW80LRdR9RKFeZQHuLYLb03zzFFvSL917a64ejEJcNWhl-91VWLIlv1FnoXHQN7Wr_eoRu_5AY5-1HWBcNaZGGFu8ckSl]--></g></svg>